<svg id="Layer_1" data-name="Layer 1" xmlns="http://www.w3.org/2000/svg" viewBox="0 0 92.25 122.88"><defs><style>.cls-1{fill:#fff;fill-rule:evenodd;}</style></defs><path class="cls-1" d="M68.51,106.28A88.65,88.65,0,0,1,49.1,122.34a2.74,2.74,0,0,1-3.12.1A109.5,109.5,0,0,1,19,98.35C9.14,86,3,72.33.83,59.15-1.33,45.79.69,32.93,7.34,22.48A45.14,45.14,0,0,1,17.39,11.34C26.77,3.87,37.48-.08,48.16,0c10.28.08,20.43,3.91,29.2,11.92a43,43,0,0,1,7.79,9.49c7.15,11.78,8.69,26.8,5.55,42a92.45,92.45,0,0,1-22.19,42.82v0ZM46.12,23.76a22.95,22.95,0,1,1-22.95,23A22.95,22.95,0,0,1,46.12,23.76Z"/></svg>