<svg id="Layer_1" data-name="Layer 1" xmlns="http://www.w3.org/2000/svg" viewBox="0 0 512 512"><defs><style>.cls-1{fill:#fff;}</style></defs><path class="cls-1" d="M509.76,408.14l-2.55-7.68c-6-17.95-25.82-36.66-44-41.59l-67.28-18.38c-18.25-5-44.28,1.71-57.62,15.06L314,379.9A258.3,258.3,0,0,1,132.19,198.11l24.35-24.35c13.35-13.35,20-39.34,15.06-57.59L153.25,48.86c-5-18.21-23.71-38-41.62-44L104,2.3c-18-6-43.54.07-56.89,13.42L10.64,52.18C4.13,58.65,0,77.17,0,77.23A429.91,429.91,0,0,0,433.76,512c.6,0,19.66-4.09,26.16-10.57L496.35,465C509.69,451.67,515.73,426.08,509.76,408.14Z"/></svg>